<svg width="96" height="33" fill="none" xmlns="http://www.w3.org/2000/svg" role="img"
    aria-label="browserstack-percy-logo">
    <path fill-rule="evenodd" clip-rule="evenodd"
        d="M24.662 4.548a.842.842 0 0 0-1.133-.537c-.265.112-.68.242-1.198.266-.892-.838-3.361-2.714-5.09-3.655 0 0 .212.617.503 1.77 0 0-1.86-1.454-3.966-2.392 0 0 .593 1.217.642 1.61 0 0-1.932-.672-4.641-.927 0 0 1.3.908 1.806 1.603 0 0-1.915-.098-4.775 0 0 0 1.625.66 2.343 1.266 0 0-3.394.345-5.312.897 0 0 2.161.763 2.761 1.33 0 0-2.756.786-5.534 2.391 0 0 1.543.27 2.751.799 0 0-1.538 1.076-3.819 4.013 0 0 1.685-.321 2.841-.23 0 0-1.464 1.712-2.229 4.332 0 0 .848-.54 1.669-.736 0 0 .088 3.124 1.795 3.625l.001-.002a.772.772 0 0 0 .233.036c.083 0 .17-.013.259-.039.541-.155.951-.69 1.426-1.309.155-.203.315-.41.485-.614a4.12 4.12 0 0 1 .734-.794c.603-.498 1.438-.875 2.456-.724 1.145.096 1.852 1.238 2.421 2.157.296.477.687 1.323 1.343 1.323.724 0 .979-.87 1.301-1.941a10.605 10.605 0 0 1 1.343-2.846c1.13-1.684 2.576-2.6 4.31-3.502 1.66-.865 3.23-1.682 4.018-2.92.393-.62.589-1.38.58-2.26a7.277 7.277 0 0 0-.324-1.99zm-8.543-.711l-2.093-1.343 3.45 1.231-1.357.112zm-5.754.612l3.315.849 1.446-.48-4.76-.369zm5.91 1.664l.707-.537-2.737.46 2.03.077zm-4.69 0l-1.133.76-3.142-.3 4.275-.46zm3.54 1.899l1.15-.644-4.275.46 3.125.184zm-3.167.716l-.801 1.318-4.012.982 4.813-2.3zm-5.011.81l-3.106 1.37L7.653 8.17 6.947 9.54zM5.248 11.18l-.123 1.37-1.783 2.238 1.906-3.608z"
        fill="#000"></path>
    <path
        d="M16.398 19.7c-.353-.006-.729-.306-1.14-.915.242-1.378 1.202-3.138 2.356-4.319-.295 1.097-.334 2.198-.366 3.082v.001c-.02.572-.038 1.066-.12 1.425-.11.482-.352.726-.718.726h-.012z"
        fill="#000"></path>
    <path
        d="M6.86 18.716c.29.661.6.983.946.983a.542.542 0 0 0 .084-.006c.47-.075.905-.995 1.269-1.884.094-.23.183-.461.262-.675-1.04.012-2.05.857-2.56 1.582z"
        fill="#000"></path>
    <path fill-rule="evenodd" clip-rule="evenodd"
        d="M89.619 19.518c-.065.202-.168.344-.311.423l-.041.02c-.155.064-.321.055-.516.007-.63-.155-3.553-.483-2.384-3.887l.693-2.02-.157-.392-.76-1.801L81.383.839a.587.587 0 0 1 .028-.58c.097-.147.267-.222.508-.227h2.709c.185 0 .343.05.464.144.121.093.21.237.286.413L88.87 8.74 91.377.612a.808.808 0 0 1 .277-.44.76.76 0 0 1 .473-.145h2.892c.245 0 .42.07.522.2.103.134.116.329.04.58l-3.889 12.172-1.5 4.724-.573 1.816zM78.216 8.561h2.956c.457 0 .726.29.565.74-.834 2.745-3.468 4.646-6.613 4.646-4.086 0-7.123-3.036-7.123-6.97 0-3.934 3.037-6.97 7.123-6.97 3.145 0 5.78 1.9 6.613 4.646.16.45-.108.74-.565.74h-2.956c-.35 0-.592-.159-.807-.449-.484-.66-1.317-1.03-2.285-1.03-1.747 0-3.09 1.241-3.09 3.063s1.343 3.062 3.09 3.062c.968 0 1.801-.37 2.285-1.003.215-.317.43-.475.807-.475zM63.736.721v.688C64.069.827 64.832 0 66.823.027c.144.001.26.055.346.143.126.127.186.3.186.524V3.92c0 .219-.047.383-.144.492-.093.11-.232.164-.413.164a3.92 3.92 0 0 0-1.137.123c-.362.096-.692.26-.98.483a2.396 2.396 0 0 0-.686.907c-.17.379-.257.839-.26 1.386l-.018 3.441c-.02 3.594-2.81 3.05-3.462 3.013-.222-.012-.395-.06-.515-.178-.121-.118-.181-.287-.181-.506V.721c0-.219.06-.388.18-.506.122-.119.293-.178.516-.178h2.784c.222 0 .395.06.515.178.121.118.181.287.181.506zM51.672.013c.982.005 1.884.18 2.706.527a6.458 6.458 0 0 1 2.14 1.456 6.655 6.655 0 0 1 1.402 2.202c.33.842.5 1.763.504 2.763 0 .172-.004.338-.018.496-.009.162-.022.32-.035.478-.027.21-.108.364-.233.46a.785.785 0 0 1-.49.146h-8.95c.169.517.406.938.718 1.263.313.32.68.553 1.09.702.415.149.857.219 1.327.219.379-.004.745-.061 1.094-.18.343-.118.642-.276.888-.478.13-.105.26-.189.384-.25.13-.061.277-.092.447-.092l2.572-.026c.246.004.424.074.532.21.102.136.107.312.004.527a5.679 5.679 0 0 1-1.407 1.916 5.909 5.909 0 0 1-2.036 1.167 7.933 7.933 0 0 1-2.532.39c-1.117-.004-2.122-.184-3.014-.535-.898-.35-1.662-.837-2.296-1.469a6.435 6.435 0 0 1-1.465-2.202c-.34-.842-.51-1.755-.514-2.741.005-.987.18-1.9.527-2.742a6.615 6.615 0 0 1 1.479-2.202 6.705 6.705 0 0 1 2.269-1.47c.875-.35 1.844-.53 2.907-.535zm-18.8 1.434a6.307 6.307 0 0 1 1.8-1.042c.671-.25 1.38-.38 2.1-.38 1.778 0 3.517.78 4.684 2.043 1.164 1.261 1.885 3.003 1.885 4.925 0 1.922-.72 3.663-1.885 4.924a6.473 6.473 0 0 1-4.685 2.044c-1.303 0-2.67-.402-3.622-1.3l.002 4.275c.003 3.594-2.81 3.05-3.461 3.012-.222-.012-.395-.06-.515-.177-.12-.119-.181-.288-.181-.506L28.986.739c0-.223.062-.398.186-.52s.301-.182.53-.182h2.445c.228 0 .406.06.53.182s.183.296.186.52l.01.708zm6.953 5.51c0-1.695-1.39-3.07-3.105-3.07s-3.105 1.375-3.105 3.07c0 1.695 1.39 3.07 3.105 3.07s3.105-1.375 3.105-3.07zm9.93-2.922c-.504.342-.861.847-1.071 1.505h5.739c-.144-.496-.358-.895-.644-1.193a2.513 2.513 0 0 0-.982-.64 3.307 3.307 0 0 0-1.152-.194c-.755.005-1.389.176-1.89.522z"
        fill="#000"></path>
    <path
        d="M32.204 31.007v-5.819h1.028v2.177h.043c.053-.106.128-.22.224-.338.097-.122.227-.225.392-.31.165-.087.375-.13.63-.13.338 0 .642.085.913.258.273.17.488.423.647.758.161.333.242.743.242 1.227 0 .48-.079.887-.236 1.222-.157.335-.371.591-.642.767a1.65 1.65 0 0 1-.92.264c-.25 0-.458-.041-.622-.125a1.266 1.266 0 0 1-.398-.3 1.957 1.957 0 0 1-.23-.339h-.06v.688h-1.011zm1.008-2.182c0 .282.04.53.12.741.08.212.197.378.349.497a.889.889 0 0 0 .557.177c.227 0 .417-.061.57-.182.154-.123.27-.291.347-.503.08-.214.12-.457.12-.73 0-.271-.04-.512-.117-.722a1.084 1.084 0 0 0-.346-.494.907.907 0 0 0-.574-.18.904.904 0 0 0-.56.174c-.153.116-.27.278-.35.486a2.106 2.106 0 0 0-.116.736zm4.476 3.818a2.084 2.084 0 0 1-.67-.108l.238-.801c.15.043.283.064.4.062a.491.491 0 0 0 .31-.11c.091-.07.168-.188.23-.353l.089-.235-1.583-4.455h1.091l1.006 3.295h.045l1.009-3.295h1.093L39.2 31.535c-.081.231-.189.429-.323.594-.135.166-.3.293-.495.38a1.646 1.646 0 0 1-.693.134z"
        fill="#000"></path>
    <path fill-rule="evenodd" clip-rule="evenodd"
        d="M87.567 29.965c-.093-.262-.14-.593-.14-1.037 0-.445.047-.776.14-1.037.26-.75.948-1.16 1.849-1.16.669 0 1.199.253 1.551.654.029.035.037.088-.009.123l-.585.479c-.047.035-.093.026-.13-.018-.223-.235-.455-.366-.827-.366-.4 0-.706.183-.836.55-.075.209-.093.453-.093.775s.018.575.093.784c.13.357.437.54.836.54.372 0 .604-.13.827-.365.037-.044.083-.044.13-.01l.585.48c.046.035.038.078.01.122-.353.392-.883.645-1.552.645-.9 0-1.589-.41-1.849-1.16z"
        fill="#000"></path>
    <path fill-rule="evenodd" clip-rule="evenodd"
        d="M94.595 31.028c-.065 0-.112-.026-.149-.087l-1.133-1.76-.604.653v1.107c0 .052-.037.087-.093.087h-.855c-.055 0-.093-.035-.093-.087v-5.752c0-.052.038-.087.093-.087h.855c.056 0 .093.035.093.087v3.416l1.533-1.69c.056-.061.102-.087.176-.087h.948c.056 0 .074.052.037.087l-1.421 1.534 1.635 2.492c.028.035.01.087-.047.087h-.975z"
        fill="#000"></path>
    <path fill-rule="evenodd" clip-rule="evenodd"
        d="M44.782 30.122H46.1c.613 0 .957-.331.957-.828 0-.488-.344-.82-.957-.82h-1.32c-.036 0-.055.018-.055.053v1.542c0 .035.019.053.056.053zm1.263-2.553c.558 0 .901-.314.901-.776 0-.47-.343-.784-.9-.784h-1.264c-.037 0-.056.017-.056.052v1.455c0 .035.019.053.056.053h1.263zm-2.415-2.38c0-.052.037-.087.092-.087h2.351c1.338 0 1.97.628 1.97 1.578 0 .67-.335 1.054-.734 1.254v.018c.39.14.845.61.845 1.333 0 1.177-.79 1.743-2.174 1.743h-2.258c-.055 0-.092-.035-.092-.087v-5.752z"
        fill="#000"></path>
    <path fill-rule="evenodd" clip-rule="evenodd"
        d="M48.925 31.028c-.056 0-.093-.035-.093-.087v-4.026c0-.052.037-.087.093-.087h.855c.055 0 .092.035.092.087v.357h.01c.213-.322.594-.54 1.161-.54.353 0 .706.13.938.349.047.043.056.078.019.121l-.493.584c-.037.044-.083.053-.13.018a1.266 1.266 0 0 0-.66-.2c-.584 0-.845.391-.845 1.062v2.275c0 .052-.037.087-.093.087h-.854z"
        fill="#000"></path>
    <path fill-rule="evenodd" clip-rule="evenodd"
        d="M54.856 29.703c.075-.218.093-.418.093-.775 0-.357-.018-.55-.093-.776-.13-.348-.418-.549-.836-.549s-.715.2-.845.55c-.075.226-.093.418-.093.775 0 .357.018.557.093.775.13.349.427.55.845.55s.706-.201.836-.55zm-2.684.262c-.103-.296-.15-.575-.15-1.037 0-.462.047-.74.15-1.037.25-.732.938-1.16 1.848-1.16.901 0 1.589.428 1.84 1.16.102.296.148.575.148 1.037 0 .462-.046.74-.148 1.037-.251.732-.939 1.159-1.84 1.159-.91 0-1.598-.427-1.849-1.16z"
        fill="#000"></path>
    <path fill-rule="evenodd" clip-rule="evenodd"
        d="M60.515 31.028c-.056 0-.093-.035-.112-.087l-.864-2.684h-.018l-.873 2.684c-.02.052-.056.087-.112.087h-.762c-.056 0-.093-.035-.111-.087l-1.412-4.026c-.02-.052.009-.087.065-.087h.892c.065 0 .102.026.12.087l.864 2.771h.019l.855-2.771a.127.127 0 0 1 .12-.087h.67c.055 0 .102.035.12.087l.91 2.771h.02l.817-2.771c.018-.061.055-.087.12-.087h.892c.056 0 .084.035.065.087l-1.412 4.026c-.018.052-.056.087-.111.087h-.762z"
        fill="#000"></path>
    <path fill-rule="evenodd" clip-rule="evenodd"
        d="M62.983 30.462a.08.08 0 0 1 0-.122l.53-.523a.094.094 0 0 1 .13 0c.325.279.846.479 1.31.479.548 0 .827-.21.827-.497 0-.252-.158-.41-.743-.462l-.483-.043c-.91-.087-1.375-.523-1.375-1.238 0-.81.622-1.324 1.737-1.324.697 0 1.282.218 1.682.514.046.035.046.087.018.122l-.455.514c-.037.044-.084.044-.13.018a2.261 2.261 0 0 0-1.17-.349c-.447 0-.679.183-.679.436 0 .244.158.392.734.444l.483.044c.938.087 1.384.54 1.384 1.228 0 .837-.65 1.42-1.876 1.42-.92 0-1.552-.339-1.923-.662z"
        fill="#000"></path>
    <path fill-rule="evenodd" clip-rule="evenodd"
        d="M70.2 28.1c-.121-.34-.456-.54-.874-.54-.427 0-.762.2-.883.54-.037.104-.056.21-.056.357 0 .035.02.053.056.053H70.2c.037 0 .056-.018.056-.053 0-.148-.019-.253-.056-.357zm-2.704 1.856a3.06 3.06 0 0 1-.158-1.028c0-.436.056-.767.149-1.037.25-.732.938-1.16 1.83-1.16.92 0 1.588.445 1.839 1.16.103.296.149.584.149 1.263 0 .053-.037.087-.102.087h-2.76c-.037 0-.056.018-.056.053 0 .122.029.226.066.322.148.41.501.636 1.003.636.501 0 .827-.174 1.05-.4.046-.044.093-.053.14-.018l.547.453c.047.035.047.079.01.122-.381.419-1.013.715-1.84.715-.947 0-1.617-.436-1.867-1.168z"
        fill="#000"></path>
    <path fill-rule="evenodd" clip-rule="evenodd"
        d="M72.076 31.028c-.056 0-.093-.035-.093-.087v-4.026c0-.052.037-.087.093-.087h.854c.056 0 .093.035.093.087v.357h.01c.213-.322.594-.54 1.16-.54.354 0 .707.13.939.349.046.043.055.078.019.121l-.493.584c-.037.044-.083.053-.13.018a1.266 1.266 0 0 0-.66-.2c-.585 0-.845.391-.845 1.062v2.275c0 .052-.037.087-.093.087h-.855z"
        fill="#000"></path>
    <path fill-rule="evenodd" clip-rule="evenodd"
        d="M75.31 30.34c-.037-.035-.055-.088-.018-.131l.576-.628a.087.087 0 0 1 .13-.008c.409.305 1.013.627 1.719.627.752 0 1.189-.357 1.189-.854 0-.427-.279-.706-1.152-.819l-.334-.044c-1.217-.156-1.905-.705-1.905-1.69 0-1.072.836-1.786 2.137-1.786.79 0 1.542.235 2.044.592.046.035.056.07.018.122l-.445.645c-.038.044-.084.052-.13.026-.511-.314-.986-.462-1.515-.462-.641 0-.994.332-.994.793 0 .41.306.689 1.161.802l.335.044c1.216.156 1.886.697 1.886 1.716 0 1.055-.808 1.839-2.379 1.839-.929 0-1.83-.349-2.322-.784z"
        fill="#000"></path>
    <path fill-rule="evenodd" clip-rule="evenodd"
        d="M81.937 31.102c-.902 0-1.245-.41-1.245-1.229V27.66c0-.035-.019-.052-.056-.052h-.298c-.055 0-.092-.035-.092-.088v-.583c0-.053.037-.087.092-.087h.298c.037 0 .056-.018.056-.053v-1.15c0-.052.037-.087.092-.087h.855c.056 0 .093.035.093.087v1.15c0 .035.019.053.056.053h.595c.055 0 .093.034.093.087v.583c0 .053-.038.088-.093.088h-.595c-.037 0-.056.017-.056.052v2.179c0 .296.13.392.418.392h.233c.055 0 .093.034.093.087v.697c0 .052-.038.087-.093.087h-.446z"
        fill="#000"></path>
    <path fill-rule="evenodd" clip-rule="evenodd"
        d="M85.766 29.616v-.322c0-.035-.02-.053-.056-.053h-.743c-.67 0-.967.175-.967.567 0 .349.27.523.771.523.641 0 .995-.235.995-.715zm.11 1.412c-.055 0-.092-.035-.092-.087v-.305h-.01c-.213.287-.631.488-1.263.488-.817 0-1.505-.401-1.505-1.281 0-.915.688-1.333 1.793-1.333h.91c.038 0 .057-.018.057-.053v-.2c0-.48-.242-.697-.995-.697-.502 0-.808.13-1.022.287-.046.035-.102.026-.13-.017l-.344-.575c-.027-.044-.018-.087.02-.114.361-.243.854-.41 1.588-.41 1.365 0 1.867.437 1.867 1.465v2.745c0 .052-.037.087-.093.087h-.78z"
        fill="#000"></path>
</svg>